{
	"asset":{
		"generator":"Khronos glTF Blender I/O v5.0.21",
		"version":"2.0"
	},
	"scene":0,
	"scenes":[
		{
			"name":"Scene",
			"nodes":[
				0,
				1,
				2,
				3,
				4,
				5,
				6,
				7,
				8
			]
		}
	],
	"nodes":[
		{
			"mesh":0,
			"name":"Grill",
			"scale":[
				2.25,
				0.25,
				3
			],
			"translation":[
				0,
				4.281250476837158,
				0
			]
		},
		{
			"mesh":1,
			"name":"Dial",
			"scale":[
				0.027705706655979156,
				0.14000003039836884,
				0.043750010430812836
			],
			"translation":[
				2.321601390838623,
				4.280238151550293,
				2.4282593727111816
			]
		},
		{
			"mesh":2,
			"name":"Dial.001",
			"scale":[
				0.027705706655979156,
				0.14000003039836884,
				0.043750010430812836
			],
			"translation":[
				2.321601390838623,
				4.280238151550293,
				1.4120315313339233
			]
		},
		{
			"mesh":3,
			"name":"Dial.002",
			"scale":[
				0.027705706655979156,
				0.14000003039836884,
				0.043750010430812836
			],
			"translation":[
				2.321601390838623,
				4.280238151550293,
				0.4047434329986572
			]
		},
		{
			"mesh":4,
			"name":"Body",
			"scale":[
				2.2960150241851807,
				2,
				3.0591933727264404
			],
			"translation":[
				0,
				2.025407314300537,
				0
			]
		},
		{
			"mesh":5,
			"name":"Cabinet1",
			"scale":[
				1,
				1.600000023841858,
				1
			],
			"translation":[
				1.3846808671951294,
				2.1923320293426514,
				1.1032434701919556
			]
		},
		{
			"mesh":6,
			"name":"Cabinet2",
			"scale":[
				1,
				1.600000023841858,
				1
			],
			"translation":[
				1.384044885635376,
				2.1923320293426514,
				-0.9224035739898682
			]
		},
		{
			"mesh":7,
			"name":"Handle1",
			"rotation":[
				0,
				0.7071068286895752,
				-0.7071068286895752,
				3.793077496538899e-08
			],
			"scale":[
				0.10000002384185791,
				0.1600000411272049,
				0.10000002384185791
			],
			"translation":[
				2.3895812034606934,
				2.1923320293426514,
				-0.26595941185951233
			]
		},
		{
			"mesh":8,
			"name":"Handle2",
			"rotation":[
				0,
				0.7071068286895752,
				-0.7071068286895752,
				3.793077496538899e-08
			],
			"scale":[
				0.10000002384185791,
				0.1600000411272049,
				0.10000002384185791
			],
			"translation":[
				2.3895812034606934,
				2.1923320293426514,
				0.4614332318305969
			]
		}
	],
	"materials":[
		{
			"doubleSided":true,
			"name":"Material.002",
			"pbrMetallicRoughness":{
				"baseColorFactor":[
					0.1859053373336792,
					0.1859053373336792,
					0.1859053373336792,
					1
				],
				"roughnessFactor":0.5
			}
		},
		{
			"doubleSided":true,
			"name":"Material.001",
			"pbrMetallicRoughness":{
				"baseColorFactor":[
					0.23202897608280182,
					0,
					0.0017223769100382924,
					1
				],
				"metallicFactor":0,
				"roughnessFactor":0.5
			}
		},
		{
			"doubleSided":true,
			"name":"Material.003",
			"pbrMetallicRoughness":{
				"baseColorFactor":[
					0.800000011920929,
					0.800000011920929,
					0.800000011920929,
					1
				],
				"roughnessFactor":0.5
			}
		},
		{
			"doubleSided":true,
			"name":"Material.005",
			"pbrMetallicRoughness":{
				"baseColorFactor":[
					0.23202897608280182,
					0,
					0.0017223769100382924,
					1
				],
				"metallicFactor":0,
				"roughnessFactor":0.5
			}
		},
		{
			"doubleSided":true,
			"name":"Material.006",
			"pbrMetallicRoughness":{
				"baseColorFactor":[
					0.800000011920929,
					0.800000011920929,
					0.800000011920929,
					1
				],
				"roughnessFactor":0.5
			}
		},
		{
			"doubleSided":true,
			"name":"Material.007",
			"pbrMetallicRoughness":{
				"baseColorFactor":[
					0.23202897608280182,
					0,
					0.0017223769100382924,
					1
				],
				"metallicFactor":0,
				"roughnessFactor":0.5
			}
		},
		{
			"doubleSided":true,
			"name":"Material.008",
			"pbrMetallicRoughness":{
				"baseColorFactor":[
					0.800000011920929,
					0.800000011920929,
					0.800000011920929,
					1
				],
				"roughnessFactor":0.5
			}
		},
		{
			"doubleSided":true,
			"name":"Material.010",
			"pbrMetallicRoughness":{
				"baseColorFactor":[
					0.23202897608280182,
					0.23202897608280182,
					0.23202897608280182,
					1
				],
				"metallicFactor":0.20769231021404266,
				"roughnessFactor":0.5
			}
		},
		{
			"doubleSided":true,
			"name":"Material.011",
			"pbrMetallicRoughness":{
				"baseColorFactor":[
					0.23202897608280182,
					0.23202897608280182,
					0.23202897608280182,
					1
				],
				"metallicFactor":0.20769231021404266,
				"roughnessFactor":0.5
			}
		},
		{
			"doubleSided":true,
			"name":"Material.012",
			"pbrMetallicRoughness":{
				"baseColorFactor":[
					0,
					0,
					0,
					1
				],
				"metallicFactor":0.20769231021404266,
				"roughnessFactor":0.5
			}
		}
	],
	"meshes":[
		{
			"name":"Cube",
			"primitives":[
				{
					"attributes":{
						"POSITION":0,
						"NORMAL":1,
						"TEXCOORD_0":2
					},
					"indices":3,
					"material":0
				}
			]
		},
		{
			"name":"Cube.002",
			"primitives":[
				{
					"attributes":{
						"POSITION":4,
						"NORMAL":5,
						"TEXCOORD_0":6
					},
					"indices":7,
					"material":1
				},
				{
					"attributes":{
						"POSITION":8,
						"NORMAL":9,
						"TEXCOORD_0":10
					},
					"indices":11,
					"material":2
				}
			]
		},
		{
			"name":"Cube.003",
			"primitives":[
				{
					"attributes":{
						"POSITION":12,
						"NORMAL":13,
						"TEXCOORD_0":14
					},
					"indices":7,
					"material":3
				},
				{
					"attributes":{
						"POSITION":15,
						"NORMAL":16,
						"TEXCOORD_0":17
					},
					"indices":11,
					"material":4
				}
			]
		},
		{
			"name":"Cube.004",
			"primitives":[
				{
					"attributes":{
						"POSITION":18,
						"NORMAL":19,
						"TEXCOORD_0":20
					},
					"indices":7,
					"material":5
				},
				{
					"attributes":{
						"POSITION":21,
						"NORMAL":22,
						"TEXCOORD_0":23
					},
					"indices":11,
					"material":6
				}
			]
		},
		{
			"name":"Cube.006",
			"primitives":[
				{
					"attributes":{
						"POSITION":24,
						"NORMAL":25,
						"TEXCOORD_0":26,
						"TANGENT":27
					},
					"indices":7
				}
			]
		},
		{
			"name":"Cube.007",
			"primitives":[
				{
					"attributes":{
						"POSITION":28,
						"NORMAL":29,
						"TEXCOORD_0":30,
						"TANGENT":31
					},
					"indices":7,
					"material":7
				}
			]
		},
		{
			"name":"Cube.008",
			"primitives":[
				{
					"attributes":{
						"POSITION":32,
						"NORMAL":33,
						"TEXCOORD_0":34,
						"TANGENT":35
					},
					"indices":7,
					"material":8
				}
			]
		},
		{
			"name":"Cube.009",
			"primitives":[
				{
					"attributes":{
						"POSITION":36,
						"NORMAL":37,
						"TEXCOORD_0":38,
						"TANGENT":39
					},
					"indices":7,
					"material":9
				}
			]
		},
		{
			"name":"Cube.010",
			"primitives":[
				{
					"attributes":{
						"POSITION":40,
						"NORMAL":41,
						"TEXCOORD_0":42,
						"TANGENT":43
					},
					"indices":7,
					"material":9
				}
			]
		}
	],
	"accessors":[
		{
			"bufferView":0,
			"componentType":5126,
			"count":80,
			"max":[
				1,
				1,
				1
			],
			"min":[
				-1,
				-1,
				-1
			],
			"type":"VEC3"
		},
		{
			"bufferView":1,
			"componentType":5126,
			"count":80,
			"type":"VEC3"
		},
		{
			"bufferView":2,
			"componentType":5126,
			"count":80,
			"type":"VEC2"
		},
		{
			"bufferView":3,
			"componentType":5123,
			"count":168,
			"type":"SCALAR"
		},
		{
			"bufferView":4,
			"componentType":5126,
			"count":24,
			"max":[
				1,
				1,
				1
			],
			"min":[
				-1,
				-1,
				-1
			],
			"type":"VEC3"
		},
		{
			"bufferView":5,
			"componentType":5126,
			"count":24,
			"type":"VEC3"
		},
		{
			"bufferView":6,
			"componentType":5126,
			"count":24,
			"type":"VEC2"
		},
		{
			"bufferView":7,
			"componentType":5123,
			"count":36,
			"type":"SCALAR"
		},
		{
			"bufferView":8,
			"componentType":5126,
			"count":192,
			"max":[
				-0.9151071906089783,
				1.2037237882614136,
				3.999999761581421
			],
			"min":[
				-2.8128626346588135,
				-1.2962759733200073,
				-3.999999761581421
			],
			"type":"VEC3"
		},
		{
			"bufferView":9,
			"componentType":5126,
			"count":192,
			"type":"VEC3"
		},
		{
			"bufferView":10,
			"componentType":5126,
			"count":192,
			"type":"VEC2"
		},
		{
			"bufferView":11,
			"componentType":5123,
			"count":372,
			"type":"SCALAR"
		},
		{
			"bufferView":12,
			"componentType":5126,
			"count":24,
			"max":[
				1,
				1,
				1
			],
			"min":[
				-1,
				-1,
				-1
			],
			"type":"VEC3"
		},
		{
			"bufferView":13,
			"componentType":5126,
			"count":24,
			"type":"VEC3"
		},
		{
			"bufferView":14,
			"componentType":5126,
			"count":24,
			"type":"VEC2"
		},
		{
			"bufferView":15,
			"componentType":5126,
			"count":192,
			"max":[
				-0.9151071906089783,
				1.2037237882614136,
				3.999999761581421
			],
			"min":[
				-2.8128626346588135,
				-1.2962759733200073,
				-3.999999761581421
			],
			"type":"VEC3"
		},
		{
			"bufferView":16,
			"componentType":5126,
			"count":192,
			"type":"VEC3"
		},
		{
			"bufferView":17,
			"componentType":5126,
			"count":192,
			"type":"VEC2"
		},
		{
			"bufferView":18,
			"componentType":5126,
			"count":24,
			"max":[
				1,
				1,
				1
			],
			"min":[
				-1,
				-1,
				-1
			],
			"type":"VEC3"
		},
		{
			"bufferView":19,
			"componentType":5126,
			"count":24,
			"type":"VEC3"
		},
		{
			"bufferView":20,
			"componentType":5126,
			"count":24,
			"type":"VEC2"
		},
		{
			"bufferView":21,
			"componentType":5126,
			"count":192,
			"max":[
				-0.9151071906089783,
				1.2037237882614136,
				3.999999761581421
			],
			"min":[
				-2.8128626346588135,
				-1.2962759733200073,
				-3.999999761581421
			],
			"type":"VEC3"
		},
		{
			"bufferView":22,
			"componentType":5126,
			"count":192,
			"type":"VEC3"
		},
		{
			"bufferView":23,
			"componentType":5126,
			"count":192,
			"type":"VEC2"
		},
		{
			"bufferView":24,
			"componentType":5126,
			"count":24,
			"max":[
				1,
				1,
				1
			],
			"min":[
				-1,
				-1,
				-1
			],
			"type":"VEC3"
		},
		{
			"bufferView":25,
			"componentType":5126,
			"count":24,
			"type":"VEC3"
		},
		{
			"bufferView":26,
			"componentType":5126,
			"count":24,
			"type":"VEC2"
		},
		{
			"bufferView":27,
			"componentType":5126,
			"count":24,
			"type":"VEC4"
		},
		{
			"bufferView":28,
			"componentType":5126,
			"count":24,
			"max":[
				1,
				1,
				1
			],
			"min":[
				-1,
				-1,
				-1
			],
			"type":"VEC3"
		},
		{
			"bufferView":29,
			"componentType":5126,
			"count":24,
			"type":"VEC3"
		},
		{
			"bufferView":30,
			"componentType":5126,
			"count":24,
			"type":"VEC2"
		},
		{
			"bufferView":31,
			"componentType":5126,
			"count":24,
			"type":"VEC4"
		},
		{
			"bufferView":32,
			"componentType":5126,
			"count":24,
			"max":[
				1,
				1,
				1
			],
			"min":[
				-1,
				-1,
				-1
			],
			"type":"VEC3"
		},
		{
			"bufferView":33,
			"componentType":5126,
			"count":24,
			"type":"VEC3"
		},
		{
			"bufferView":34,
			"componentType":5126,
			"count":24,
			"type":"VEC2"
		},
		{
			"bufferView":35,
			"componentType":5126,
			"count":24,
			"type":"VEC4"
		},
		{
			"bufferView":36,
			"componentType":5126,
			"count":24,
			"max":[
				1,
				1,
				1
			],
			"min":[
				-1,
				-1,
				-1
			],
			"type":"VEC3"
		},
		{
			"bufferView":37,
			"componentType":5126,
			"count":24,
			"type":"VEC3"
		},
		{
			"bufferView":38,
			"componentType":5126,
			"count":24,
			"type":"VEC2"
		},
		{
			"bufferView":39,
			"componentType":5126,
			"count":24,
			"type":"VEC4"
		},
		{
			"bufferView":40,
			"componentType":5126,
			"count":24,
			"max":[
				1,
				1,
				1
			],
			"min":[
				-1,
				-1,
				-1
			],
			"type":"VEC3"
		},
		{
			"bufferView":41,
			"componentType":5126,
			"count":24,
			"type":"VEC3"
		},
		{
			"bufferView":42,
			"componentType":5126,
			"count":24,
			"type":"VEC2"
		},
		{
			"bufferView":43,
			"componentType":5126,
			"count":24,
			"type":"VEC4"
		}
	],
	"bufferViews":[
		{
			"buffer":0,
			"byteLength":960,
			"byteOffset":0,
			"target":34962
		},
		{
			"buffer":0,
			"byteLength":960,
			"byteOffset":960,
			"target":34962
		},
		{
			"buffer":0,
			"byteLength":640,
			"byteOffset":1920,
			"target":34962
		},
		{
			"buffer":0,
			"byteLength":336,
			"byteOffset":2560,
			"target":34963
		},
		{
			"buffer":0,
			"byteLength":288,
			"byteOffset":2896,
			"target":34962
		},
		{
			"buffer":0,
			"byteLength":288,
			"byteOffset":3184,
			"target":34962
		},
		{
			"buffer":0,
			"byteLength":192,
			"byteOffset":3472,
			"target":34962
		},
		{
			"buffer":0,
			"byteLength":72,
			"byteOffset":3664,
			"target":34963
		},
		{
			"buffer":0,
			"byteLength":2304,
			"byteOffset":3736,
			"target":34962
		},
		{
			"buffer":0,
			"byteLength":2304,
			"byteOffset":6040,
			"target":34962
		},
		{
			"buffer":0,
			"byteLength":1536,
			"byteOffset":8344,
			"target":34962
		},
		{
			"buffer":0,
			"byteLength":744,
			"byteOffset":9880,
			"target":34963
		},
		{
			"buffer":0,
			"byteLength":288,
			"byteOffset":10624,
			"target":34962
		},
		{
			"buffer":0,
			"byteLength":288,
			"byteOffset":10912,
			"target":34962
		},
		{
			"buffer":0,
			"byteLength":192,
			"byteOffset":11200,
			"target":34962
		},
		{
			"buffer":0,
			"byteLength":2304,
			"byteOffset":11392,
			"target":34962
		},
		{
			"buffer":0,
			"byteLength":2304,
			"byteOffset":13696,
			"target":34962
		},
		{
			"buffer":0,
			"byteLength":1536,
			"byteOffset":16000,
			"target":34962
		},
		{
			"buffer":0,
			"byteLength":288,
			"byteOffset":17536,
			"target":34962
		},
		{
			"buffer":0,
			"byteLength":288,
			"byteOffset":17824,
			"target":34962
		},
		{
			"buffer":0,
			"byteLength":192,
			"byteOffset":18112,
			"target":34962
		},
		{
			"buffer":0,
			"byteLength":2304,
			"byteOffset":18304,
			"target":34962
		},
		{
			"buffer":0,
			"byteLength":2304,
			"byteOffset":20608,
			"target":34962
		},
		{
			"buffer":0,
			"byteLength":1536,
			"byteOffset":22912,
			"target":34962
		},
		{
			"buffer":0,
			"byteLength":288,
			"byteOffset":24448,
			"target":34962
		},
		{
			"buffer":0,
			"byteLength":288,
			"byteOffset":24736,
			"target":34962
		},
		{
			"buffer":0,
			"byteLength":192,
			"byteOffset":25024,
			"target":34962
		},
		{
			"buffer":0,
			"byteLength":384,
			"byteOffset":25216,
			"target":34962
		},
		{
			"buffer":0,
			"byteLength":288,
			"byteOffset":25600,
			"target":34962
		},
		{
			"buffer":0,
			"byteLength":288,
			"byteOffset":25888,
			"target":34962
		},
		{
			"buffer":0,
			"byteLength":192,
			"byteOffset":26176,
			"target":34962
		},
		{
			"buffer":0,
			"byteLength":384,
			"byteOffset":26368,
			"target":34962
		},
		{
			"buffer":0,
			"byteLength":288,
			"byteOffset":26752,
			"target":34962
		},
		{
			"buffer":0,
			"byteLength":288,
			"byteOffset":27040,
			"target":34962
		},
		{
			"buffer":0,
			"byteLength":192,
			"byteOffset":27328,
			"target":34962
		},
		{
			"buffer":0,
			"byteLength":384,
			"byteOffset":27520,
			"target":34962
		},
		{
			"buffer":0,
			"byteLength":288,
			"byteOffset":27904,
			"target":34962
		},
		{
			"buffer":0,
			"byteLength":288,
			"byteOffset":28192,
			"target":34962
		},
		{
			"buffer":0,
			"byteLength":192,
			"byteOffset":28480,
			"target":34962
		},
		{
			"buffer":0,
			"byteLength":384,
			"byteOffset":28672,
			"target":34962
		},
		{
			"buffer":0,
			"byteLength":288,
			"byteOffset":29056,
			"target":34962
		},
		{
			"buffer":0,
			"byteLength":288,
			"byteOffset":29344,
			"target":34962
		},
		{
			"buffer":0,
			"byteLength":192,
			"byteOffset":29632,
			"target":34962
		},
		{
			"buffer":0,
			"byteLength":384,
			"byteOffset":29824,
			"target":34962
		}
	],
	"buffers":[
		{
			"byteLength":30208,
			"uri":"griddle-823315acd7004ba905b1304d73c0614c.bin"
		}
	]
}
