{
	"asset":{
		"generator":"Khronos glTF Blender I/O v5.0.21",
		"version":"2.0"
	},
	"scene":0,
	"scenes":[
		{
			"name":"Scene",
			"nodes":[
				0
			]
		}
	],
	"nodes":[
		{
			"mesh":0,
			"name":"Main Body",
			"rotation":[
				0.15924297273159027,
				0,
				0,
				0.987239420413971
			],
			"scale":[
				1,
				0.4838866591453552,
				1.2500001192092896
			],
			"translation":[
				0,
				0.09247809648513794,
				0
			]
		}
	],
	"materials":[
		{
			"doubleSided":true,
			"name":"Material",
			"pbrMetallicRoughness":{
				"baseColorFactor":[
					0.0547582246363163,
					0.0547582246363163,
					0.0547582246363163,
					1
				],
				"metallicFactor":0.35384616255760193,
				"roughnessFactor":0.5230769515037537
			}
		}
	],
	"meshes":[
		{
			"name":"Cube",
			"primitives":[
				{
					"attributes":{
						"POSITION":0,
						"NORMAL":1,
						"TEXCOORD_0":2
					},
					"indices":3,
					"material":0
				}
			]
		}
	],
	"accessors":[
		{
			"bufferView":0,
			"componentType":5126,
			"count":144,
			"max":[
				1,
				1,
				1
			],
			"min":[
				-1,
				-1.7599865198135376,
				-1
			],
			"type":"VEC3"
		},
		{
			"bufferView":1,
			"componentType":5126,
			"count":144,
			"type":"VEC3"
		},
		{
			"bufferView":2,
			"componentType":5126,
			"count":144,
			"type":"VEC2"
		},
		{
			"bufferView":3,
			"componentType":5123,
			"count":264,
			"type":"SCALAR"
		}
	],
	"bufferViews":[
		{
			"buffer":0,
			"byteLength":1728,
			"byteOffset":0,
			"target":34962
		},
		{
			"buffer":0,
			"byteLength":1728,
			"byteOffset":1728,
			"target":34962
		},
		{
			"buffer":0,
			"byteLength":1152,
			"byteOffset":3456,
			"target":34962
		},
		{
			"buffer":0,
			"byteLength":528,
			"byteOffset":4608,
			"target":34963
		}
	],
	"buffers":[
		{
			"byteLength":5136,
			"uri":"ticketprinter-41c9ae6bdc7710b5c1a97e408c1d4185.bin"
		}
	]
}
